<svg width="29" height="28" viewBox="0 0 29 28" fill="none" xmlns="http://www.w3.org/2000/svg">
<g id="Group">
<path id="Vector" d="M24.622 14.8003H22.6872L22.7895 12.6549C22.801 12.4118 22.7125 12.1744 22.5445 11.9983C22.3766 11.8222 22.1437 11.7225 21.9004 11.7225H2.31925C2.07581 11.7225 1.84305 11.8222 1.67511 11.9983C1.50718 12.1746 1.41862 12.4118 1.43019 12.6549L1.82539 20.9453C1.92301 22.994 3.1779 24.7178 4.94104 25.501H1.14669C0.655208 25.501 0.256592 25.8996 0.256592 26.3911C0.256592 26.8826 0.655208 27.2812 1.14669 27.2812H23.1985C23.6899 27.2812 24.0886 26.8826 24.0886 26.3911C24.0886 25.8996 23.6899 25.501 23.1985 25.501H19.2788C20.708 24.866 21.8022 23.6129 22.2176 22.0695H24.622C26.6261 22.0695 28.2566 20.439 28.2566 18.4349C28.2566 16.4309 26.6261 14.8003 24.622 14.8003ZM17.1419 24.1732H7.07787C5.21815 24.1732 3.69208 22.7181 3.60351 20.8604L3.25281 13.5024H20.9668L20.6163 20.8604C20.5277 22.7181 19.0016 24.1732 17.1419 24.1732ZM24.622 20.2893H22.4257L22.6025 16.5786C22.6157 16.5792 22.6288 16.5805 22.6421 16.5805H24.622C25.6446 16.5805 26.4764 17.4123 26.4764 18.4349C26.4764 19.4575 25.6446 20.2893 24.622 20.2893Z" fill="black"/>
<path id="Vector_2" d="M9.4944 10.2635C9.63652 10.3474 9.79243 10.3875 9.94642 10.3875C10.2508 10.3875 10.5474 10.2311 10.7135 9.95016C10.9638 9.52692 10.8235 8.98114 10.4002 8.73102C9.90532 8.43847 9.56323 7.89878 9.46176 7.25049C9.35613 6.5755 9.53252 5.90317 9.93321 5.45234C9.93677 5.44833 9.94034 5.44433 9.94375 5.44018C10.0406 5.32713 10.1375 5.21602 10.2335 5.10579C11.0568 4.16021 11.9083 3.18273 12.1528 1.76006C12.2362 1.27555 11.9109 0.815219 11.4265 0.731995C10.942 0.64877 10.4817 0.973805 10.3984 1.45832C10.2384 2.38936 9.61397 3.10633 8.89106 3.9365C8.79359 4.04836 8.69538 4.16125 8.59718 4.27578C7.85083 5.11959 7.5166 6.33369 7.70307 7.52538C7.88673 8.7012 8.53976 9.69915 9.4944 10.2635Z" fill="black"/>
<path id="Vector_3" d="M12.2567 8.2535C12.5506 9.01023 13.0748 9.70333 13.733 10.205C13.8942 10.3279 14.0837 10.3874 14.272 10.3874C14.5402 10.3874 14.8055 10.2666 14.9805 10.0368C15.2786 9.64591 15.2032 9.08738 14.8121 8.78934C14.4169 8.48804 14.0903 8.05798 13.9161 7.60922C13.5691 6.71571 13.8979 5.82531 15.0155 4.63184C15.8079 3.78565 16.3143 2.78904 16.48 1.7494C16.5573 1.264 16.2267 0.807676 15.7411 0.730237C15.2557 0.652798 14.7994 0.983618 14.7219 1.46917C14.6108 2.16626 14.2724 2.82093 13.7161 3.41507C13.1324 4.03829 11.3563 5.93494 12.2567 8.2535Z" fill="black"/>
</g>
</svg>
